<?xml version="1.0" encoding="UTF-8" standalone="no"?>
<!DOCTYPE svg PUBLIC "-//W3C//DTD SVG 1.1//EN"
 "http://www.w3.org/Graphics/SVG/1.1/DTD/svg11.dtd">
<!-- Generated by graphviz version 2.38.0 (20140413.2041)
 -->
<!-- Title: models_diagram Pages: 1 -->
<svg width="484pt" height="100pt"
 viewBox="0.00 0.00 484.00 100.00" xmlns="http://www.w3.org/2000/svg" xmlns:xlink="http://www.w3.org/1999/xlink">
<g id="graph0" class="graph" transform="scale(1 1) rotate(0) translate(4 96)">
<title>models_diagram</title>
<polygon fill="none" stroke="none" points="-4,4 -4,-96 480,-96 480,4 -4,4"/>
<!-- _diagram_info -->
<g id="node1" class="node"><title>_diagram_info</title>
<text text-anchor="start" x="8" y="-70.6" font-family="Times,serif" font-size="13.00">Models diagram</text>
<text text-anchor="start" x="8" y="-56.6" font-family="Times,serif" font-size="13.00">Date: Jul 18 2016 &#45; 21:10</text>
<text text-anchor="start" x="8" y="-42.6" font-family="Times,serif" font-size="13.00">Migration version: 20160718235510</text>
<text text-anchor="start" x="8" y="-28.6" font-family="Times,serif" font-size="13.00">Generated by RailRoady 1.5.1</text>
<text text-anchor="start" x="8" y="-14.6" font-family="Times,serif" font-size="13.00">http://railroady.prestonlee.com</text>
</g>
<!-- Category -->
<g id="node2" class="node"><title>Category</title>
<path fill="none" stroke="black" d="M244,-0.5C244,-0.5 464,-0.5 464,-0.5 470,-0.5 476,-6.5 476,-12.5 476,-12.5 476,-79.5 476,-79.5 476,-85.5 470,-91.5 464,-91.5 464,-91.5 244,-91.5 244,-91.5 238,-91.5 232,-85.5 232,-79.5 232,-79.5 232,-12.5 232,-12.5 232,-6.5 238,-0.5 244,-0.5"/>
<text text-anchor="middle" x="354" y="-76.3" font-family="Times,serif" font-size="14.00">Category</text>
<polyline fill="none" stroke="black" points="232,-68.5 476,-68.5 "/>
<text text-anchor="start" x="240" y="-53.3" font-family="Times,serif" font-size="14.00">id :integer</text>
<text text-anchor="start" x="240" y="-38.3" font-family="Times,serif" font-size="14.00">name :character varying</text>
<text text-anchor="start" x="240" y="-23.3" font-family="Times,serif" font-size="14.00">created_at :timestamp without time zone</text>
<text text-anchor="start" x="240" y="-8.3" font-family="Times,serif" font-size="14.00">updated_at :timestamp without time zone</text>
</g>
</g>
</svg>
