<?xml version="1.0" encoding="UTF-8" standalone="no"?>
<!DOCTYPE svg PUBLIC "-//W3C//DTD SVG 1.1//EN"
 "http://www.w3.org/Graphics/SVG/1.1/DTD/svg11.dtd">
<!-- Generated by graphviz version 2.38.0 (20140413.2041)
 -->
<!-- Title: models_diagram Pages: 1 -->
<svg width="506pt" height="158pt"
 viewBox="0.00 0.00 505.90 158.00" xmlns="http://www.w3.org/2000/svg" xmlns:xlink="http://www.w3.org/1999/xlink">
<g id="graph0" class="graph" transform="scale(1 1) rotate(0) translate(4 154)">
<title>models_diagram</title>
<polygon fill="none" stroke="none" points="-4,4 -4,-154 501.896,-154 501.896,4 -4,4"/>
<!-- _diagram_info -->
<g id="node1" class="node"><title>_diagram_info</title>
<text text-anchor="start" x="8" y="-135.6" font-family="Times,serif" font-size="13.00">Models diagram</text>
<text text-anchor="start" x="8" y="-121.6" font-family="Times,serif" font-size="13.00">Date: Jul 18 2016 &#45; 21:10</text>
<text text-anchor="start" x="8" y="-107.6" font-family="Times,serif" font-size="13.00">Migration version: 20160718235510</text>
<text text-anchor="start" x="8" y="-93.6" font-family="Times,serif" font-size="13.00">Generated by RailRoady 1.5.1</text>
<text text-anchor="start" x="8" y="-79.6" font-family="Times,serif" font-size="13.00">http://railroady.prestonlee.com</text>
</g>
<!-- Inventory -->
<g id="node2" class="node"><title>Inventory</title>
<ellipse fill="none" stroke="black" cx="277" cy="-111" rx="44.6926" ry="18"/>
<text text-anchor="middle" x="277" y="-107.3" font-family="Times,serif" font-size="14.00">Inventory</text>
</g>
<!-- User -->
<g id="node3" class="node"><title>User</title>
<ellipse fill="none" stroke="black" cx="367" cy="-111" rx="27.0966" ry="18"/>
<text text-anchor="middle" x="367" y="-107.3" font-family="Times,serif" font-size="14.00">User</text>
</g>
<!-- Work -->
<g id="node5" class="node"><title>Work</title>
<ellipse fill="none" stroke="black" cx="315" cy="-18" rx="31.3957" ry="18"/>
<text text-anchor="middle" x="315" y="-14.3" font-family="Times,serif" font-size="14.00">Work</text>
</g>
<!-- User&#45;&gt;Work -->
<g id="edge2" class="edge"><title>User&#45;&gt;Work</title>
<path fill="none" stroke="#0d409b" d="M353.711,-86.745C346.334,-73.8343 337.145,-57.7541 329.572,-44.5004"/>
<ellipse fill="none" stroke="#0d409b" cx="355.719" cy="-90.258" rx="4.00002" ry="4.00002"/>
<polygon fill="#0d409b" stroke="#0d409b" points="329.353,-44.1174 328.298,-33.2023 326.872,-39.7762 324.391,-35.4349 324.391,-35.4349 324.391,-35.4349 326.872,-39.7762 320.484,-37.6676 329.353,-44.1174 329.353,-44.1174"/>
</g>
<!-- Serialnumer -->
<g id="node6" class="node"><title>Serialnumer</title>
<ellipse fill="none" stroke="black" cx="418" cy="-18" rx="53.8905" ry="18"/>
<text text-anchor="middle" x="418" y="-14.3" font-family="Times,serif" font-size="14.00">Serialnumer</text>
</g>
<!-- User&#45;&gt;Serialnumer -->
<g id="edge1" class="edge"><title>User&#45;&gt;Serialnumer</title>
<path fill="none" stroke="#249ab1" d="M380.249,-86.3589C387.757,-72.9623 397.124,-56.2495 404.649,-42.8229"/>
<ellipse fill="none" stroke="#249ab1" cx="378.073" cy="-90.2416" rx="4.00002" ry="4.00002"/>
<ellipse fill="#249ab1" stroke="#249ab1" cx="406.661" cy="-39.2332" rx="4.00002" ry="4.00002"/>
</g>
<!-- Category -->
<g id="node4" class="node"><title>Category</title>
<ellipse fill="none" stroke="black" cx="455" cy="-111" rx="42.7926" ry="18"/>
<text text-anchor="middle" x="455" y="-107.3" font-family="Times,serif" font-size="14.00">Category</text>
</g>
</g>
</svg>
